<svg width="70" height="70" viewBox="0 0 70 70" fill="none" xmlns="http://www.w3.org/2000/svg">
<g clip-path="url(#clip0_8_184)">
<path d="M70 35C70 15.7015 54.2985 0 35 0C15.7015 0 0 15.7015 0 35C0 54.2985 15.7015 70 35 70C54.2985 70 70 54.2985 70 35ZM3.49715 35C3.49715 17.6285 17.6285 3.49715 35 3.49715C52.3715 3.49715 66.5029 17.6285 66.5029 35C66.5029 52.3715 52.3715 66.5029 35 66.5029C17.6285 66.5029 3.49715 52.3715 3.49715 35Z" fill="black"/>
<path d="M30.8605 43.593L24.0089 36.7414H50.1876C51.1582 36.7414 51.9433 35.9564 51.9433 34.9857C51.9433 34.0151 51.1582 33.23 50.1876 33.23H24.0232L30.8748 26.3785C31.2173 26.0359 31.3886 25.5934 31.3886 25.1366C31.3886 24.6799 31.2173 24.2374 30.8748 23.8948C30.1896 23.2096 29.0905 23.2096 28.4053 23.8948L18.5705 33.7296C17.8854 34.4148 17.8854 35.5139 18.5705 36.199L28.4053 46.0339C29.0905 46.719 30.1896 46.719 30.8748 46.0339C31.5456 45.3915 31.5456 44.2781 30.8605 43.593Z" fill="black"/>
</g>
<defs>
<clipPath id="clip0_8_184">
<rect width="70" height="70" fill="white" transform="translate(0 70) rotate(-90)"/>
</clipPath>
</defs>
</svg>
